<svg xmlns="http://www.w3.org/2000/svg" viewBox="0 0 147 142.69"><defs><style>.cls-1,.cls-2{fill:none;}.cls-1,.cls-3,.cls-4{stroke:#333;stroke-miterlimit:10;}.cls-1,.cls-3{stroke-width:4px;}.cls-3{fill:#f2f2f2;}.cls-4{fill:#333;}</style></defs><title>Asset 5</title><g id="Layer_2" data-name="Layer 2"><g id="Layer_1-2" data-name="Layer 1"><rect class="cls-1" x="2" y="19.53" width="143" height="121.16"/><rect class="cls-2" x="7.69" y="26.31" width="130.81" height="107.6"/><path class="cls-3" d="M28,19.53V9.36a10.52,10.52,0,0,1,7.72-7.2C40.25,1.29,45.07,4,47.09,8.94c-.13,3.53-.27,7.06-.4,10.59Z"/><path class="cls-3" d="M100.58,19.53l.14-10.59A9.19,9.19,0,0,1,108,2.16c4.14-.58,8.35,2.22,9.75,6.78V19.53Z"/><rect class="cls-4" x="43.03" y="57.23" width="18.69" height="13.56"/><rect class="cls-4" x="64.97" y="57.23" width="18.69" height="13.56"/><rect class="cls-4" x="86.91" y="57.23" width="18.69" height="13.56"/><rect class="cls-4" x="108.84" y="57.23" width="18.69" height="13.56"/><rect class="cls-4" x="108.84" y="75.02" width="18.69" height="13.56"/><rect class="cls-4" x="86.91" y="75.02" width="18.69" height="13.56"/><rect class="cls-4" x="64.97" y="75.02" width="18.69" height="13.56"/><rect class="cls-4" x="43.03" y="75.02" width="18.69" height="13.56"/><rect class="cls-4" x="21.09" y="75.02" width="18.69" height="13.56"/><rect class="cls-4" x="108.84" y="92.82" width="18.69" height="13.56"/><rect class="cls-4" x="86.91" y="92.82" width="18.69" height="13.56"/><rect class="cls-4" x="64.97" y="92.82" width="18.69" height="13.56"/><rect class="cls-4" x="43.03" y="92.82" width="18.69" height="13.56"/><rect class="cls-4" x="21.09" y="92.82" width="18.69" height="13.56"/></g></g></svg>