<svg xmlns="http://www.w3.org/2000/svg" viewBox="0 0 192.28 129"><defs><style>.cls-1{fill:none;}.cls-1,.cls-2{stroke:#333;stroke-miterlimit:10;stroke-width:4px;}.cls-2{fill:#333;}</style></defs><title>Asset 3</title><g id="Layer_2" data-name="Layer 2"><g id="Layer_1-2" data-name="Layer 1"><path class="cls-1" d="M189.78,65v50a12,12,0,0,1-12,12h-94a12,12,0,0,1-12-12l-3.24-11.56a1.31,1.31,0,0,0-1.24-1L3.51,102S.12,5.1,3.51,2H57.65L78,19.83h55.83V53h44A12,12,0,0,1,189.78,65Z"/><path class="cls-1" d="M82.28,52.5h96a12,12,0,0,1,12,12v50a12,12,0,0,1-12,12H83.94a13.67,13.67,0,0,1-13.67-13.67V64.5A12,12,0,0,1,82.28,52.5Z"/><circle class="cls-1" cx="134.28" cy="90.5" r="12"/><rect class="cls-2" x="111.28" y="35.5" width="46" height="17" rx="8.5" ry="8.5"/></g></g></svg>