<svg xmlns="http://www.w3.org/2000/svg" viewBox="0 0 142.07 88"><defs><style>.cls-1{fill:none;}.cls-1,.cls-3{stroke:#333;stroke-miterlimit:10;stroke-width:4px;}.cls-2,.cls-3{fill:#ccc;}</style></defs><title>Asset 6</title><g id="Layer_2" data-name="Layer 2"><g id="Layer_1-2" data-name="Layer 1"><path class="cls-1" d="M129.09,38.13c.31.45.6.92.88,1.39"/><path class="cls-1" d="M92,68.57c-19.8-.8-39.62.05-59.42-.92-5-.24-10-.52-14.89-1.13C13.73,66,9.7,64.91,6.76,62,1.19,56.49,1,47.48,3.72,40.44S15.85,28,23,31.11C24.65,20.83,35.39,12.8,45.2,16.45,48,5.61,60.47-1.51,70.42,3.8A18.93,18.93,0,0,1,78,11.56c9.25-7.57,24-5.12,30.53,5.1a21.41,21.41,0,0,1,3.33,12.71"/><line class="cls-1" x1="62.06" y1="23.54" x2="62.02" y2="23.54"/><path class="cls-2" d="M129.33,29.41H140l-.35,10.27h-.16L129.8,30c-.22-.23-.37-.3-.47-.3Z"/><polygon class="cls-1" points="129.33 29.41 125.96 29.41 91.98 29.41 91.98 86 138.09 86 139.47 45.12 139.65 39.68 140 29.41 129.33 29.41"/><path class="cls-1" d="M129.33,29.7c-.08,0-.11.05-.11.12l.11,9.52,9.69.47c.21,0,.33-.28.47-.13L129.8,30C129.58,29.77,129.43,29.7,129.33,29.7Z"/><polygon class="cls-3" points="92 68.57 91.98 68.62 91.98 68.57 92 68.57"/><line class="cls-1" x1="95.84" y1="44.89" x2="128.41" y2="44.89"/><line class="cls-1" x1="95.84" y1="52.58" x2="128.41" y2="52.58"/><line class="cls-1" x1="95.84" y1="60.27" x2="121.23" y2="60.27"/><line class="cls-1" x1="95.56" y1="68.55" x2="108.26" y2="68.55"/></g></g></svg>