<svg xmlns="http://www.w3.org/2000/svg" viewBox="0 0 348 167.5"><defs><style>.cls-1,.cls-2{fill:#fff;}.cls-2{font-size:72px;font-family:Calibri, Calibri;}</style></defs><title>logowAsset 5</title><g id="Layer_2" data-name="Layer 2"><g id="Layer_1-2" data-name="Layer 1"><path class="cls-1" d="M2.13,44.82,140.27,0l12.37,5.46-103.26,36a8.3,8.3,0,0,0-2.83,13.81c22,20.68,74.27,58.83,74.27,58.83L122,132.91,1.83,46.83A1.15,1.15,0,0,1,2.13,44.82Z"/><path class="cls-1" d="M0,49.16v17.6L139.68,167.5V37.63l-14.15,3.64,1.1,93.15a3.46,3.46,0,0,1-5.46,3Z"/><path class="cls-1" d="M56.58,59.17l77.79-26.09c2.86-.91,7.66-2,7.66,1.05V167.5l13-8.5V8.5L47.15,47Z"/><text class="cls-2" transform="translate(161 100.98)">MSM</text></g></g></svg>